<svg width="131" height="38" viewBox="0 0 131 38" fill="none" xmlns="http://www.w3.org/2000/svg">
<path d="M49.4854 18.0746C49.3602 18.3041 49.1671 18.4189 48.9063 18.4189C48.7498 18.4189 48.5724 18.3615 48.3741 18.2468C48.1759 18.132 47.9306 18.0068 47.6385 17.8711C47.3567 17.725 47.0176 17.5946 46.6211 17.4798C46.2246 17.3546 45.7551 17.292 45.2125 17.292C44.7429 17.292 44.3203 17.3546 43.9447 17.4798C43.569 17.5946 43.2456 17.7563 42.9743 17.965C42.7134 18.1737 42.5099 18.4189 42.3638 18.7007C42.2282 18.972 42.1604 19.2693 42.1604 19.5928C42.1604 19.9997 42.2751 20.3389 42.5047 20.6102C42.7447 20.8815 43.0577 21.1162 43.4438 21.3145C43.8299 21.5128 44.2681 21.6901 44.7586 21.8467C45.249 21.9927 45.7498 22.1545 46.2611 22.3319C46.7829 22.4988 47.2889 22.6866 47.7793 22.8953C48.2698 23.104 48.708 23.3649 49.0941 23.6779C49.4802 23.991 49.788 24.377 50.0175 24.8361C50.2575 25.2848 50.3775 25.8274 50.3775 26.4639C50.3775 27.1943 50.2471 27.8726 49.9862 28.4987C49.7254 29.1143 49.3393 29.6517 48.828 30.1108C48.3167 30.5595 47.6907 30.9143 46.9498 31.1751C46.209 31.436 45.3533 31.5664 44.3829 31.5664C43.2769 31.5664 42.2751 31.389 41.3778 31.0342C40.4804 30.669 39.7187 30.2047 39.0926 29.6412L39.75 28.5769C39.8335 28.4413 39.9326 28.3369 40.0474 28.2639C40.1622 28.1908 40.3082 28.1543 40.4856 28.1543C40.6734 28.1543 40.8717 28.2274 41.0804 28.3734C41.2891 28.5195 41.5395 28.6813 41.8317 28.8587C42.1343 29.036 42.4995 29.1978 42.9273 29.3439C43.3551 29.4899 43.8873 29.563 44.5238 29.563C45.0664 29.563 45.5411 29.4952 45.9481 29.3595C46.355 29.2134 46.6942 29.0204 46.9655 28.7804C47.2368 28.5404 47.435 28.2639 47.5602 27.9508C47.6959 27.6378 47.7637 27.3039 47.7637 26.9491C47.7637 26.5109 47.6437 26.1509 47.4037 25.8692C47.1741 25.577 46.8663 25.3318 46.4802 25.1335C46.0942 24.9248 45.6507 24.7475 45.1498 24.6014C44.6594 24.4449 44.1534 24.2831 43.6316 24.1162C43.1203 23.9492 42.6143 23.7614 42.1134 23.5527C41.623 23.3336 41.1847 23.0623 40.7987 22.7388C40.4126 22.4153 40.0995 22.0188 39.8596 21.5493C39.63 21.0693 39.5152 20.4902 39.5152 19.8119C39.5152 19.2067 39.6404 18.6276 39.8909 18.0746C40.1413 17.5111 40.5065 17.0207 40.9865 16.6033C41.4665 16.1755 42.056 15.8364 42.7551 15.586C43.4542 15.3355 44.2525 15.2103 45.1498 15.2103C46.1933 15.2103 47.1272 15.3773 47.9515 15.7112C48.7863 16.0346 49.5063 16.4833 50.1115 17.0572L49.4854 18.0746ZM64.4052 21.6588C64.4052 21.0119 64.3113 20.4223 64.1235 19.8902C63.9461 19.3476 63.68 18.8833 63.3252 18.4972C62.9809 18.1007 62.5583 17.7981 62.0574 17.5894C61.5566 17.3703 60.9879 17.2607 60.3514 17.2607C59.0158 17.2607 57.9567 17.652 57.1741 18.4346C56.4019 19.2067 55.9219 20.2815 55.7341 21.6588H64.4052ZM66.659 29.0934C66.3147 29.5108 65.9025 29.876 65.4226 30.1891C64.9426 30.4917 64.4261 30.7421 63.873 30.9403C63.3304 31.1386 62.767 31.2847 62.1826 31.3786C61.5983 31.4829 61.0192 31.5351 60.4453 31.5351C59.3497 31.5351 58.3375 31.3525 57.4089 30.9873C56.4906 30.6116 55.6924 30.0691 55.0141 29.3595C54.3463 28.6395 53.8246 27.7526 53.449 26.6987C53.0733 25.6448 52.8855 24.4344 52.8855 23.0675C52.8855 21.9614 53.0524 20.9284 53.3863 19.9684C53.7307 19.0085 54.2211 18.1789 54.8576 17.4798C55.4941 16.7703 56.2715 16.2172 57.1897 15.8207C58.108 15.4138 59.141 15.2103 60.2888 15.2103C61.2383 15.2103 62.1148 15.372 62.9183 15.6955C63.7322 16.0085 64.4313 16.4677 65.0156 17.0729C65.6104 17.6676 66.0747 18.4085 66.4086 19.2954C66.7425 20.1719 66.9095 21.1736 66.9095 22.3006C66.9095 22.7388 66.8625 23.031 66.7686 23.1771C66.6747 23.3231 66.4973 23.3962 66.2364 23.3962H55.6402C55.6715 24.3979 55.8072 25.2692 56.0471 26.01C56.2976 26.7509 56.6419 27.3717 57.0802 27.8726C57.5184 28.363 58.0401 28.7334 58.6453 28.9839C59.2505 29.2239 59.9288 29.3439 60.6801 29.3439C61.3792 29.3439 61.9792 29.2656 62.48 29.1091C62.9913 28.9421 63.4296 28.7647 63.7948 28.5769C64.16 28.3891 64.4626 28.2169 64.7026 28.0604C64.953 27.8935 65.1669 27.81 65.3443 27.81C65.5739 27.81 65.7512 27.8987 65.8765 28.0761L66.659 29.0934ZM72.9611 17.7615C73.3054 17.3755 73.6706 17.0259 74.0567 16.7129C74.4428 16.3998 74.8497 16.1338 75.2775 15.9146C75.7158 15.6851 76.1749 15.5129 76.6549 15.3981C77.1453 15.2729 77.6723 15.2103 78.2357 15.2103C79.1018 15.2103 79.8635 15.3564 80.5209 15.6486C81.1887 15.9303 81.7417 16.3372 82.18 16.8694C82.6287 17.3911 82.9678 18.0224 83.1973 18.7633C83.4269 19.5041 83.5417 20.3232 83.5417 21.2206V31.316H80.74V21.2206C80.74 20.0206 80.4635 19.0919 79.9105 18.4346C79.3679 17.7668 78.5383 17.4329 77.4218 17.4329C76.5975 17.4329 75.8254 17.6311 75.1054 18.0276C74.3958 18.4241 73.7385 18.9615 73.1333 19.6398V31.316H70.3316V15.4607H72.0063C72.4028 15.4607 72.648 15.6538 72.742 16.0399L72.9611 17.7615ZM92.4407 31.5664C91.1885 31.5664 90.2234 31.2169 89.5451 30.5177C88.8773 29.8186 88.5434 28.8117 88.5434 27.4969V17.7929H86.6339C86.4669 17.7929 86.3261 17.7459 86.2113 17.652C86.0965 17.5476 86.0391 17.3911 86.0391 17.1824V16.0712L88.6373 15.7425L89.279 10.8435C89.3103 10.6869 89.3782 10.5617 89.4825 10.4678C89.5973 10.3635 89.7434 10.3113 89.9208 10.3113H91.3294V15.7738H95.9154V17.7929H91.3294V27.3091C91.3294 27.9769 91.4911 28.4726 91.8146 28.796C92.1381 29.1195 92.5555 29.2812 93.0668 29.2812C93.3589 29.2812 93.6094 29.2447 93.818 29.1717C94.0372 29.0882 94.225 28.9995 94.3815 28.9056C94.538 28.8117 94.6685 28.7282 94.7728 28.6552C94.8876 28.5717 94.9867 28.53 95.0702 28.53C95.2163 28.53 95.3467 28.6187 95.4615 28.796L96.2754 30.1264C95.7954 30.5751 95.2163 30.9299 94.538 31.1908C93.8598 31.4412 93.1607 31.5664 92.4407 31.5664ZM101.437 18.638C101.938 17.5529 102.554 16.7077 103.284 16.1025C104.015 15.4868 104.907 15.179 105.961 15.179C106.295 15.179 106.613 15.2155 106.915 15.2886C107.228 15.3616 107.505 15.4764 107.745 15.6329L107.541 17.7146C107.479 17.9755 107.322 18.1059 107.072 18.1059C106.926 18.1059 106.712 18.0746 106.43 18.012C106.148 17.9494 105.83 17.9181 105.475 17.9181C104.975 17.9181 104.526 17.9911 104.129 18.1372C103.743 18.2833 103.394 18.5024 103.081 18.7946C102.778 19.0763 102.502 19.4311 102.251 19.8589C102.011 20.2763 101.792 20.7563 101.594 21.2988V31.316H98.7921V15.4607H100.389C100.691 15.4607 100.9 15.5181 101.015 15.6329C101.129 15.7477 101.208 15.9459 101.249 16.2277L101.437 18.638ZM118.543 24.1788C117.26 24.2205 116.164 24.3249 115.256 24.4918C114.359 24.6483 113.623 24.857 113.049 25.1179C112.486 25.3787 112.074 25.6866 111.813 26.0413C111.562 26.3961 111.437 26.7926 111.437 27.2309C111.437 27.6482 111.505 28.0082 111.641 28.3108C111.776 28.6134 111.959 28.8639 112.188 29.0621C112.428 29.2499 112.705 29.3908 113.018 29.4847C113.341 29.5682 113.686 29.6099 114.051 29.6099C114.541 29.6099 114.99 29.563 115.397 29.4691C115.804 29.3647 116.185 29.2186 116.54 29.0308C116.905 28.843 117.249 28.6187 117.573 28.3578C117.906 28.0969 118.23 27.7995 118.543 27.4656V24.1788ZM109.543 17.6989C110.42 16.8537 111.364 16.2225 112.376 15.8051C113.388 15.3877 114.51 15.179 115.741 15.179C116.628 15.179 117.416 15.3251 118.105 15.6173C118.793 15.9094 119.372 16.3164 119.842 16.8381C120.312 17.3598 120.666 17.9911 120.906 18.732C121.146 19.4728 121.266 20.2867 121.266 21.1736V31.316H120.03C119.759 31.316 119.55 31.2742 119.404 31.1908C119.258 31.0969 119.143 30.9195 119.059 30.6586L118.746 29.156C118.329 29.5421 117.922 29.8865 117.526 30.1891C117.129 30.4812 116.712 30.7316 116.273 30.9403C115.835 31.1386 115.366 31.2899 114.865 31.3942C114.374 31.509 113.827 31.5664 113.221 31.5664C112.606 31.5664 112.027 31.4829 111.484 31.316C110.941 31.1386 110.467 30.8777 110.06 30.5334C109.663 30.1891 109.345 29.756 109.105 29.2343C108.875 28.7021 108.761 28.0761 108.761 27.3561C108.761 26.73 108.933 26.13 109.277 25.5561C109.621 24.9718 110.18 24.4553 110.952 24.0066C111.724 23.5579 112.731 23.1927 113.973 22.911C115.214 22.6188 116.738 22.4519 118.543 22.4101V21.1736C118.543 19.9424 118.277 19.0137 117.745 18.3876C117.213 17.7511 116.435 17.4329 115.413 17.4329C114.724 17.4329 114.145 17.5216 113.675 17.6989C113.216 17.8659 112.814 18.0589 112.47 18.2781C112.136 18.4867 111.844 18.6798 111.594 18.8572C111.354 19.0241 111.114 19.1076 110.874 19.1076C110.686 19.1076 110.524 19.0606 110.388 18.9667C110.253 18.8624 110.138 18.7372 110.044 18.5911L109.543 17.6989Z" fill="#00076C"/>
<path d="M122.873 18.6652L112.997 32.3136L127.605 33.662L122.873 18.6652Z" fill="#EAEBF2" stroke="#EAEBF2" stroke-width="0.173103"/>
<path d="M25.3209 8.10559L23.4168 12.8659H1V8.10559H25.3209Z" fill="#00076C" stroke="#00076C" stroke-width="0.173103"/>
<path d="M22.5514 15.1162L21.1666 18.9245H1.08667V15.1162H22.5514Z" fill="#00076C" stroke="#00076C" stroke-width="0.173103"/>
<path d="M29.3889 21.0017L28.2638 23.9445H1.08667V21.0017H29.3889Z" fill="#00076C" stroke="#00076C" stroke-width="0.173103"/>
<path d="M27.3115 26.1948L26.6773 27.9258H1.04321V26.1948H27.3115Z" fill="#00076C" stroke="#00076C" stroke-width="0.173103"/>
<path d="M25.6672 30.1761L25.321 31.1282H1.08667V30.1761H25.6672Z" fill="#00076C" stroke="#00076C" stroke-width="0.173103"/>
<g clip-path="url(#clip0_849_33)">
<path d="M124.445 27.8587C124.578 27.1457 124.424 26.5576 124.014 26.2031L122.913 25.2536C122.503 24.8991 121.898 24.8336 121.212 25.0691C120.571 25.2891 119.923 25.7526 119.389 26.3715C118.855 26.9904 118.491 27.6996 118.367 28.3658C118.235 29.0788 118.388 29.6669 118.799 30.0214L119.899 30.9709C120.31 31.3254 120.914 31.3909 121.6 31.1554C122.241 30.9354 122.889 30.4719 123.423 29.853C123.957 29.2341 124.321 28.5249 124.445 27.8587ZM123.21 29.349L122.476 28.716C122.787 28.3273 123.033 27.8911 123.204 27.4242L123.905 28.0293C123.781 28.4571 123.545 28.918 123.21 29.349ZM124.004 27.4745L123.345 26.9061C123.383 26.7072 123.397 26.5043 123.387 26.302L123.697 26.5698C123.926 26.7677 124.023 27.0911 124.004 27.4745ZM119.756 26.688C120.699 25.5946 122.001 25.106 122.597 25.6203C123.193 26.1347 122.9 27.4936 121.956 28.587C121.013 29.6804 119.711 30.169 119.115 29.6546C118.519 29.1403 118.812 27.7814 119.756 26.688ZM120.216 30.6042L119.906 30.3369C120.108 30.3177 120.306 30.2743 120.497 30.2075L121.156 30.7759C120.779 30.8504 120.445 30.802 120.216 30.6042ZM121.69 30.5966L120.989 29.9917C121.426 29.7537 121.821 29.4469 122.16 29.0829L122.894 29.7159C122.516 30.1099 122.095 30.411 121.69 30.5966Z" fill="#00076C"/>
</g>
<defs>
<clipPath id="clip0_849_33">
<rect width="7.7511" height="7.7511" fill="white" transform="translate(121.004 22.6462) rotate(40.7938)"/>
</clipPath>
</defs>
</svg>
